<?xml version="1.0" encoding="UTF-8" standalone="no"?>
<!-- Created with Inkscape (http://www.inkscape.org/) -->

<svg
   version="1.1"
   id="svg2"
   width="183.62975"
   height="50.45866"
   viewBox="0 0 183.62975 50.45866"
   sodipodi:docname="lim-logo.svg"
   inkscape:version="1.3.2 (091e20ef0f, 2023-11-25, custom)"
   xmlns:inkscape="http://www.inkscape.org/namespaces/inkscape"
   xmlns:sodipodi="http://sodipodi.sourceforge.net/DTD/sodipodi-0.dtd"
   xmlns="http://www.w3.org/2000/svg"
   xmlns:svg="http://www.w3.org/2000/svg">
  <defs
     id="defs6">
    <clipPath
       clipPathUnits="userSpaceOnUse"
       id="clipPath24">
      <path
         d="M 0,1080 H 1080 V 0 H 0 Z"
         id="path22" />
    </clipPath>
  </defs>
  <sodipodi:namedview
     id="namedview4"
     pagecolor="#ffffff"
     bordercolor="#000000"
     borderopacity="0.25"
     inkscape:showpageshadow="2"
     inkscape:pageopacity="0.0"
     inkscape:pagecheckerboard="0"
     inkscape:deskcolor="#d1d1d1"
     showguides="true"
     inkscape:zoom="5.634744"
     inkscape:cx="69.035967"
     inkscape:cy="47.384584"
     inkscape:window-width="1918"
     inkscape:window-height="2106"
     inkscape:window-x="0"
     inkscape:window-y="53"
     inkscape:window-maximized="1"
     inkscape:current-layer="g8" />
  <g
     id="g8"
     inkscape:groupmode="layer"
     inkscape:label="LDF_LiM_Logo"
     transform="matrix(1.3333333,0,0,-1.3333333,-183.6276,867.38718)">
    <g
       id="g12"
       transform="matrix(0.17117737,0,0,0.17117737,137.7207,650.17424)"
       style="fill:#070707;fill-opacity:1">
      <path
         d="m 0,0 h 12.832 v -90.109 h 53.467 v -11.834 H 0 Z"
         style="fill:#070707;fill-opacity:1;fill-rule:nonzero;stroke:none"
         id="path14" />
    </g>
    <path
       d="m 151.29015,650.17418 h 2.19655 v -17.45033 h -2.19655 z"
       style="fill:#070707;fill-opacity:1;fill-rule:nonzero;stroke:none;stroke-width:0.171178"
       id="path16" />
    <g
       id="g18"
       style="fill:#070707;fill-opacity:1"
       transform="matrix(0.17117737,0,0,0.17117737,114.14604,539.18261)">
      <g
         id="g20"
         clip-path="url(#clipPath24)"
         style="fill:#070707;fill-opacity:1">
        <g
           id="g26"
           transform="translate(325.3506,559.8604)"
           style="fill:#070707;fill-opacity:1">
          <path
             d="m 0,0 h -0.285 c -7.414,-10.408 -18.393,-15.541 -31.795,-15.541 -28.658,0 -47.906,21.814 -47.906,52.754 0,29.941 16.966,53.467 49.047,53.467 23.668,0 38.21,-12.832 41.49,-32.793 h -13.26 c -2.852,13.545 -12.404,21.672 -28.516,21.672 -24.523,0 -35.644,-18.393 -35.644,-42.346 0,-24.951 14.543,-41.633 35.217,-41.633 20.959,0 30.797,14.258 30.797,31.367 v 2.424 H -31.51 v 11.121 h 43.487 v -53.894 h -8.27 z"
             style="fill:#070707;fill-opacity:1;fill-rule:nonzero;stroke:none"
             id="path28" />
        </g>
        <g
           id="g30"
           transform="translate(355.0059,648.4014)"
           style="fill:#070707;fill-opacity:1">
          <path
             d="M 0,0 H 12.832 V -43.344 H 67.297 V 0 H 80.129 V -101.943 H 67.297 v 48.191 H 12.832 v -48.191 H 0 Z"
             style="fill:#070707;fill-opacity:1;fill-rule:nonzero;stroke:none"
             id="path32" />
        </g>
        <g
           id="g34"
           transform="translate(447.8242,648.4014)"
           style="fill:#070707;fill-opacity:1">
          <path
             d="M 0,0 H 80.699 V -11.264 H 46.766 v -90.679 H 33.934 v 90.679 H 0 Z"
             style="fill:#070707;fill-opacity:1;fill-rule:nonzero;stroke:none"
             id="path36" />
        </g>
        <path
           d="m 216.994,533.626 h 12.832 V 431.683 h -12.832 z"
           style="fill:#070707;fill-opacity:1;fill-rule:nonzero;stroke:none"
           id="path38" />
        <g
           id="g40"
           transform="translate(249.2158,533.626)"
           style="fill:#070707;fill-opacity:1">
          <path
             d="m 0,0 h 13.545 l 46.48,-70.861 c 3.422,-5.276 7.414,-13.118 7.414,-13.118 h 0.286 V 0 H 79.701 V -101.943 H 66.584 l -46.766,71.004 c -3.279,4.99 -7.556,12.689 -7.556,12.689 h -0.285 v -83.693 H 0 Z"
             style="fill:#070707;fill-opacity:1;fill-rule:nonzero;stroke:none"
             id="path42" />
        </g>
        <g
           id="g44"
           transform="translate(393.3613,533.626)"
           style="fill:#070707;fill-opacity:1">
          <path
             d="M 0,0 H 16.396 L 49.475,-84.691 H 49.76 L 82.553,0 H 99.234 V -101.943 H 86.973 v 83.836 h -0.285 c 0,0 -2.709,-7.985 -4.563,-12.832 L 54.18,-101.943 h -9.838 l -27.946,71.004 c -1.996,5.132 -4.562,12.832 -4.562,12.832 h -0.285 v -83.836 H 0 Z"
             style="fill:#070707;fill-opacity:1;fill-rule:nonzero;stroke:none"
             id="path46" />
        </g>
        <g
           id="g48"
           transform="translate(594.5371,482.7256)"
           style="fill:#070707;fill-opacity:1">
          <path
             d="M 0,0 C 0,23.953 -12.832,42.061 -36.785,42.061 -60.738,42.061 -73.57,23.953 -73.57,0 c 0,-23.953 12.832,-41.918 36.785,-41.918 C -12.832,-41.918 0,-23.953 0,0 m -86.688,0 c 0,30.512 19.106,53.182 49.903,53.182 30.797,0 49.902,-22.67 49.902,-53.182 0,-30.512 -19.105,-53.182 -49.902,-53.182 -30.797,0 -49.903,22.67 -49.903,53.182"
             style="fill:#070707;fill-opacity:1;fill-rule:nonzero;stroke:none"
             id="path50" />
        </g>
        <g
           id="g52"
           transform="translate(616.5791,536.46)"
           style="fill:#070707;fill-opacity:1">
          <path
             d="M 0,0 H 82.963 V -11.579 H 48.077 v -93.223 H 34.886 v 93.223 H 0 Z"
             style="fill:#070707;fill-opacity:1;fill-rule:nonzero;stroke:none"
             id="path54" />
        </g>
        <path
           d="m 712.882,536.46 h 13.192 V 431.658 h -13.192 z"
           style="fill:#070707;fill-opacity:1;fill-rule:nonzero;stroke:none"
           id="path56" />
        <g
           id="g58"
           transform="translate(831.1699,484.1328)"
           style="fill:#070707;fill-opacity:1">
          <path
             d="m 0,0 c 0,24.624 -13.192,43.239 -37.816,43.239 -24.625,0 -37.818,-18.615 -37.818,-43.239 0,-24.625 13.193,-43.094 37.818,-43.094 C -13.192,-43.094 0,-24.625 0,0 m -89.118,0 c 0,31.367 19.64,54.673 51.302,54.673 31.66,0 51.3,-23.306 51.3,-54.673 0,-31.367 -19.64,-54.673 -51.3,-54.673 -31.662,0 -51.302,23.306 -51.302,54.673"
             style="fill:#070707;fill-opacity:1;fill-rule:nonzero;stroke:none"
             id="path60" />
        </g>
        <g
           id="g62"
           transform="translate(860.3428,536.46)"
           style="fill:#070707;fill-opacity:1">
          <path
             d="m 0,0 h 13.925 l 47.784,-72.849 c 3.518,-5.422 7.622,-13.484 7.622,-13.484 h 0.293 V 0 H 81.937 V -104.802 H 68.451 l -48.077,72.995 c -3.371,5.13 -7.769,13.045 -7.769,13.045 h -0.292 v -86.04 H 0 Z"
             style="fill:#070707;fill-opacity:1;fill-rule:nonzero;stroke:none"
             id="path64" />
        </g>
      </g>
    </g>
  </g>
</svg>
